<?xml version="1.0" encoding="utf-8"?><svg xmlns="http://www.w3.org/2000/svg" xmlns:xlink="http://www.w3.org/1999/xlink"><symbol viewBox="0 0 24 32" id="bookmark" xmlns="http://www.w3.org/2000/svg"><path fill="#E2574C" d="M2 .003h20a2 2 0 0 1 2 2v28c0 1.167-.881 2-2 2-.936 0-8.03-4.435-9-5-.971-.565-.986-.598-2 0-1.014.601-8.046 5-9 5-1.133 0-2-.803-2-2v-28a2 2 0 0 1 2-2z"/><path fill="#CB4E44" d="M22 .003H12v26.565c.258-.002.505.146 1 .435.966.563 8.009 4.965 8.984 4.997h.047c1.104-.016 1.969-.841 1.969-1.997v-28a2 2 0 0 0-2-2z"/><path fill="#EFC75E" d="M20.003 12.047l-5.261-.389L12 6.003l-2.773 5.655-5.229.389 3.5 4.365-1 5.588L12 19.428 17.502 22l-1.018-5.588 3.519-4.365z"/><path fill="#D7B354" d="M17.502 22.001l-1.018-5.588 3.519-4.366-5.261-.389L12 6.003V19.43z"/></symbol><symbol viewBox="0 0 31.973 26.008" id="diamond" xmlns="http://www.w3.org/2000/svg"><path fill="#BF392C" d="M1.982 7.005l4.006-5c1.577-2 1.522-2 3.004-2H23c1.479 0 1.424 0 2.998 2l3.998 5c2.697 3.004 2.645 3.004 0 6l-10.995 11c-.968 1-1.479 2-2.999 2-1.522 0-2.035-1-3.004-2l-11.017-11c-2.649-2.996-2.702-2.996.001-6z"/><path fill="#D78366" d="M7.988 12.005l8-12 8 12h-16z"/><path fill-rule="evenodd" clip-rule="evenodd" fill="#CC7062" d="M31.988 10.005v-.116c-.06-.712-.714-1.461-1.991-2.884l-3.998-5c-1.574-2-1.52-2-2.998-2h-7.013s7.997 12.001 8 12c.088-.095 8-2 8-2z"/><path fill="#CC7062" d="M5.988 2.005l-4.006 5C.707 8.422.052 9.17-.012 9.88v.125s7.911 1.904 8 2c.003.001 8-12 8-12H8.992c-1.482 0-1.427 0-3.004 2z"/><path fill="#C5543B" d="M23.988 12.005h-16l6.871 13.743a2.5 2.5 0 0 0 1.144.258c.444 0 .796-.093 1.104-.238l6.881-13.763z"/><path fill="#E1A28B" d="M15.988 12.005L23.954.056C23.709.011 23.418.005 23 .005H8.992c-.427 0-.721.006-.968.054l7.964 11.946z"/><g fill="#CF7C69"><path d="M24.93.692C24.323.021 24.028.005 23 .005h-7.013l8 12L24.93.692z"/><path d="M7.046.706l.942 11.3 8-12H8.992c-1.037-.001-1.329.015-1.946.7z"/></g></symbol><symbol viewBox="0 0 26 32" id="glove" xmlns="http://www.w3.org/2000/svg"><path fill="#CB4E44" d="M6 22h16v7c0 1.656-1.344 3-3 3H9a3 3 0 0 1-3-3v-7z"/><path fill="#AA4B44" d="M18 24.75h1V32h-1v-7.25z"/><path fill="#B6463D" d="M22 22v3c0 1.104-3.582 2-8 2s-8-.896-8-2v-3h16z"/><path fill="#E2574C" d="M8 0h12c3.312 0 6 2.687 6 6v13c0 3.313-2.688 6-6 6H6.266S2 21.731 2 19V6a6 6 0 0 1 6-6z"/><path fill="#CC4E45" d="M8 13c1.104 0 2 1.791 2 4s-.896 4-2 4-2-1.791-2-4 .896-4 2-4z"/><path fill="#BF392C" d="M14 19a2 2 0 0 0-2 2v4h4v-4a2 2 0 0 0-2-2z"/><path fill="#A93528" d="M14 19a2 2 0 0 0-2 2v1a2 2 0 0 1 4 0v-1a2 2 0 0 0-2-2z"/><path fill="#99433D" d="M18 25v1.729c.352-.052.686-.106 1-.171v-1.561h-1V25z"/><path fill="#CB4E44" d="M20 0H8a6 6 0 0 0-6 6v1c0 3.313 2.688 6 6 6h12c3.312 0 6-2.687 6-6V6c0-3.313-2.688-6-6-6z"/><path fill="#A23E36" d="M20 12h-9c-3.312 0-6-2.687-6-6V4c0-1.434.521-2.736 1.362-3.768A5.998 5.998 0 0 0 2 6v1c0 3.313 2.688 6 6 6h12a6.035 6.035 0 0 0 1.009-.091c.261-.044.517-.099.765-.175l.004-.001a5.749 5.749 0 0 0 .893-.365A5.998 5.998 0 0 0 26 7V6c0 3.312-2.688 6-6 6z"/><path fill="#DB837C" d="M21.797 7.99h1.209v-.675c0-2.662-1.73-4.869-4.004-5.311 1.648 1.252 2.795 3.822 2.795 5.986z"/><path fill="#E2574C" d="M12 10.577c0-1.705-1.343-3.088-3-3.088L3 9.548c-2.408 1.063-3 2.411-3 4.117v4.117C0 21.191 2.687 25 6 25h1c.552 0 1-2.887 1-5.159s-.448-4.118-1-4.118c0-.001 5-3.44 5-5.146z"/><path fill="#C04A40" d="M2 16.781v-4.117c0-1.309.357-2.405 1.606-3.325L3 9.548c-2.408 1.063-3 2.411-3 4.117v4.117C0 21.191 2.687 25 6 25h1s-.16.627 0 0c-3.106-.319-5-4.963-5-8.219z"/></symbol><symbol viewBox="0 0 25 32" id="lightning" xmlns="http://www.w3.org/2000/svg"><path fill="#EFC75E" d="M25 11.037h-9.531L21.227 0H6.604L0 18.988h9.109L4.717 32 25 11.037z"/><path fill="#F5DD9D" d="M8.047 2.011h8.955L8.936 4.015l-4.933 9L8.047 2.011z"/></symbol><symbol viewBox="-0.016 -0.003 32.031 32.006" id="rocket" xmlns="http://www.w3.org/2000/svg"><path fill="#EFC75E" d="M9.627 22.319c1.495 1.489 1.945 3.938.451 5.428-1.495 1.489-6.001 3.148-7.496 1.659-1.494-1.489.172-5.979 1.666-7.468 1.495-1.489 3.885-1.109 5.379.381z"/><path fill="#E2574C" d="M23.432 19.008c2.251 4.667-3.242 15.53-5.782 12.456-1.03-1.246-.962-3.234-3.651-5.794-.004.016.979.174 2.13-.868 2.656-2.046 7.303-5.777 7.303-5.794zM13.973 8.556C8.928 6.27-2.757 11.727.573 14.294c1.35 1.041 3.492.984 6.267 3.699-.017.004-.192-.984.926-2.135 2.189-2.658 6.188-7.302 6.207-7.302z"/><path fill="#CF5349" d="M11.751 8.038l-.218-.011a485.708 485.708 0 0 0-5.461 6.794c-.676.734-.859 1.401-.898 1.795.323.222.656.478 1 .772.084-.398.305-.953.858-1.554 2.105-2.694 5.948-7.404 5.966-7.403a5.364 5.364 0 0 0-1.247-.393zm11.712 11.044c-.658.554-4.828 3.973-7.306 5.924-.819.758-1.546.9-1.909.914.356.358.664.705.926 1.04.326.005 1.111-.098 1.997-.917a466.308 466.308 0 0 0 6.715-5.436 5.404 5.404 0 0 0-.423-1.525z"/><path fill="#D7B354" d="M6.089 21.038c.208.932.847 2.043 1.842 3.036.99.988 2.097 1.624 3.028 1.836.158-1.252-.36-2.623-1.332-3.591-.967-.964-2.307-1.452-3.538-1.281z"/><path fill="#EBEBEB" d="M31.814.16c.752.711-.355 11.267-7.57 18.434-4.467 4.438-7.43 6.156-8.139 6.771-1.961.889-3.262 1.367-7.148-2.495-3.877-3.852-3.131-4.92-2.271-6.765.638-.716 2.405-3.691 6.873-8.13C20.771.809 31.027-.538 31.814.16z"/><path fill="#324D5B" d="M22.795 9.163a3.996 3.996 0 0 1 0 5.643 3.979 3.979 0 0 1-5.633 0 3.996 3.996 0 0 1 0-5.643 3.977 3.977 0 0 1 5.633 0z"/><path fill="#CCD0D2" d="M21.4 10.577a1.986 1.986 0 0 1 0 2.821 2.018 2.018 0 0 1-2.84 0 1.988 1.988 0 0 1 0-2.821 2.018 2.018 0 0 1 2.84 0z"/></symbol><symbol viewBox="0 0 32 32" id="sword" xmlns="http://www.w3.org/2000/svg"><path fill="#E4E7E7" d="M23.994 15.347L7.331 32.01H0v-7.331L16.662 8.016l7.332 7.331z"/><path fill="#CCD0D2" d="M20.686 11.302a1.003 1.003 0 0 1 0 1.414L5.691 27.736a.995.995 0 0 1-1.411 0 1 1 0 0 1 0-1.414l14.994-15.021a.997.997 0 0 1 1.412.001z"/><path fill="#D0D3D3" d="M21.448 17.894l-7.332-7.331 1.415-1.415 7.33 7.332z"/><path fill="#B7BBBD" d="M18.479 14.926l-1.413-1.413L18.48 12.1l1.413 1.413z"/><path fill="#E8AB54" d="M30.672 7.683a4.506 4.506 0 1 0-6.373-6.373 4.497 4.497 0 0 0-1.045 4.698l-2.746 2.745-4.178-4.179a1.96 1.96 0 0 0-2.771 2.771l11.082 11.083a1.96 1.96 0 0 0 2.771-2.771l-4.179-4.179 2.749-2.749a4.495 4.495 0 0 0 4.69-1.046z"/><path fill="#EDBE7C" d="M27.992 2.024a1 1 0 1 1 0 2 1 1 0 1 1 0-2z"/><path fill-rule="evenodd" clip-rule="evenodd" fill="#D89F50" d="M24.234 10.478l-1 1-2.725-2.725 1-1z"/></symbol></svg>